<svg width="512" height="512" viewBox="0 0 512 512" fill="none" xmlns="http://www.w3.org/2000/svg">
  <rect width="512" height="512" rx="36" fill="#FAF7F2"/>
  <g filter="url(#shadow)">
    <circle cx="208" cy="214" r="120" fill="url(#globe)"/>
    <path d="M114 192C133 166 168 138 206 132C213 147 224 163 245 178C227 192 210 217 205 243C170 240 137 220 114 192Z" fill="#8BDD62"/>
    <path d="M207 243C214 218 232 194 255 180C289 186 319 204 335 230C314 263 272 292 223 295C214 279 207 262 207 243Z" fill="#B5F17A"/>
    <path d="M187 304C200 302 213 302 225 300C239 323 268 342 304 349C272 370 229 379 190 371C179 347 179 324 187 304Z" fill="#6FD164"/>
    <path d="M289 124C309 136 324 154 335 176C322 178 309 181 297 188C285 171 271 157 254 145C265 136 277 130 289 124Z" fill="#C7F48B"/>
    <path d="M89 218C78 205 64 199 50 200C64 177 84 159 104 148C109 160 119 171 132 181C115 191 100 202 89 218Z" fill="#F7FBFF"/>
    <path d="M316 100C340 101 365 110 387 127C368 136 353 148 341 165C326 150 309 138 289 129C298 117 307 107 316 100Z" fill="#F7FBFF"/>
    <path d="M344 332C364 330 387 338 409 355C389 368 372 383 359 400C343 388 325 380 304 376C316 359 329 344 344 332Z" fill="#F7FBFF"/>
    <path d="M151 112C152 130 147 144 135 156C120 152 105 152 91 156C100 136 114 119 131 106C138 107 145 109 151 112Z" fill="#EAF3FF"/>
    <path d="M164 193C171 193 177 187 177 179C177 172 171 166 164 166C156 166 150 172 150 179C150 187 156 193 164 193Z" fill="#E53B1D"/>
    <path d="M284 162C291 162 297 156 297 148C297 141 291 135 284 135C276 135 270 141 270 148C270 156 276 162 284 162Z" fill="#F6A51A"/>
    <path d="M250 322C257 322 263 316 263 309C263 301 257 295 250 295C242 295 236 301 236 309C236 316 242 322 250 322Z" fill="#35B36F"/>
    <path d="M105 250C104 224 118 198 141 183C166 166 203 153 244 149C307 144 370 166 418 208L482 159C460 196 439 227 419 251C381 296 327 330 263 347C221 358 178 354 145 333C119 316 106 289 105 250Z" fill="url(#swoosh)"/>
    <path d="M130 267C184 286 259 284 331 256C373 240 409 219 438 191L482 159C460 196 439 227 419 251C381 296 327 330 263 347C221 358 178 354 145 333C137 314 132 292 130 267Z" fill="url(#swooshLight)"/>
    <path d="M146 380C209 408 299 405 370 362" stroke="#0C8BC6" stroke-width="12" stroke-linecap="round"/>
  </g>
  <text x="256" y="425" text-anchor="middle" fill="#F48A1C" font-size="34" font-family="Arial, sans-serif" font-weight="700" letter-spacing="1.5">GOLDEN HIVE HOLIDAYS</text>
  <text x="256" y="392" text-anchor="middle" fill="#2D9FD9" font-size="18" font-family="Arial, sans-serif" font-weight="600" letter-spacing="4">TRAVEL WITH GOLDEN HIVE</text>
  <defs>
    <linearGradient id="globe" x1="108" y1="112" x2="316" y2="332" gradientUnits="userSpaceOnUse">
      <stop stop-color="#6F7BFF"/>
      <stop offset="1" stop-color="#40C9FF"/>
    </linearGradient>
    <linearGradient id="swoosh" x1="129" y1="239" x2="482" y2="239" gradientUnits="userSpaceOnUse">
      <stop stop-color="#F1D11C"/>
      <stop offset="0.52" stop-color="#F6A515"/>
      <stop offset="1" stop-color="#E53B1D"/>
    </linearGradient>
    <linearGradient id="swooshLight" x1="130" y1="253" x2="438" y2="253" gradientUnits="userSpaceOnUse">
      <stop stop-color="#FFF7CC"/>
      <stop offset="1" stop-color="#FFE0A6"/>
    </linearGradient>
    <filter id="shadow" x="34" y="88" width="464" height="330" filterUnits="userSpaceOnUse" color-interpolation-filters="sRGB">
      <feFlood flood-opacity="0" result="BackgroundImageFix"/>
      <feColorMatrix in="SourceAlpha" type="matrix" values="0 0 0 0 0 0 0 0 0 0 0 0 0 0 0 0 0 0 127 0" result="hardAlpha"/>
      <feOffset dy="8"/>
      <feGaussianBlur stdDeviation="8"/>
      <feComposite in2="hardAlpha" operator="out"/>
      <feColorMatrix type="matrix" values="0 0 0 0 0.0901961 0 0 0 0 0.133333 0 0 0 0 0.180392 0 0 0 0.16 0"/>
      <feBlend mode="normal" in2="BackgroundImageFix" result="effect1_dropShadow_1_2"/>
      <feBlend mode="normal" in="SourceGraphic" in2="effect1_dropShadow_1_2" result="shape"/>
    </filter>
  </defs>
</svg>
